<?xml version="1.0" standalone="no"?>
<!DOCTYPE svg PUBLIC "-//W3C//DTD SVG 20010904//EN"
 "http://www.w3.org/TR/2001/REC-SVG-20010904/DTD/svg10.dtd">
<svg version="1.0" xmlns="http://www.w3.org/2000/svg"
 width="945.000000pt" height="945.000000pt" viewBox="0 0 945.000000 945.000000"
 preserveAspectRatio="xMidYMid meet">
<metadata>
Created by potrace 1.14, written by Peter Selinger 2001-2017
</metadata>
<g transform="translate(0.000000,945.000000) scale(0.100000,-0.100000)"
fill="#000000" stroke="none">
<path d="M5009 8716 c-2 -2 -31 -6 -64 -9 -33 -4 -75 -10 -92 -16 -18 -5 -33
-8 -33 -6 0 3 -12 0 -27 -6 -16 -6 -38 -13 -51 -15 -49 -9 -275 -105 -385
-163 -121 -63 -290 -167 -295 -182 -2 -5 -10 -9 -18 -9 -8 0 -14 -4 -14 -10 0
-5 -6 -10 -14 -10 -8 0 -21 -8 -28 -17 -7 -10 -20 -19 -28 -21 -8 -2 -16 -8
-18 -13 -2 -5 -8 -9 -13 -9 -6 0 -29 -18 -52 -39 -23 -22 -52 -48 -64 -59 -13
-10 -19 -22 -15 -26 4 -4 2 -6 -4 -4 -12 3 -164 -131 -164 -145 0 -6 -7 -15
-14 -21 -8 -6 -16 -18 -18 -26 -2 -8 -9 -21 -16 -28 -7 -8 -9 -18 -6 -24 4 -6
2 -8 -4 -4 -6 3 -13 -2 -17 -13 -3 -11 -19 -36 -35 -56 -16 -21 -27 -42 -23
-48 3 -6 1 -7 -5 -3 -7 4 -14 -3 -18 -19 -3 -14 -10 -25 -15 -25 -5 0 -9 -6
-9 -12 0 -7 -6 -24 -13 -38 -7 -14 -21 -50 -31 -80 -32 -97 -39 -139 -37 -220
1 -71 1 -184 -1 -240 -1 -33 8 -162 16 -222 2 -14 0 -47 -4 -71 -4 -25 -3 -52
2 -61 5 -8 15 -55 22 -103 8 -48 17 -97 19 -108 10 -42 51 -152 70 -190 11
-22 20 -42 20 -45 0 -3 3 -14 7 -25 4 -11 8 -40 9 -65 1 -31 10 -57 29 -85 15
-22 40 -65 55 -95 15 -30 44 -73 65 -95 62 -64 174 -160 184 -157 5 1 7 -2 4
-7 -6 -10 55 -55 97 -70 42 -16 61 -13 89 12 21 19 35 23 96 22 62 0 72 -2 72
-17 0 -10 1 -21 2 -25 24 -108 31 -210 30 -433 0 -47 4 -104 10 -126 10 -43
69 -114 95 -114 8 0 12 -4 9 -8 -3 -5 13 -19 35 -32 23 -12 37 -25 32 -29 -4
-4 -25 -20 -47 -35 -57 -42 -80 -102 -72 -185 4 -36 9 -80 12 -96 4 -22 0 -37
-17 -55 -50 -57 -73 -146 -48 -191 7 -15 7 -24 -2 -35 -6 -8 -8 -14 -3 -14 5
0 3 -4 -4 -9 -25 -15 -40 -84 -37 -160 3 -63 1 -76 -17 -95 -60 -63 -89 -118
-68 -131 5 -3 6 -15 1 -28 -5 -12 -14 -41 -21 -65 -9 -33 -21 -50 -56 -75 -24
-17 -45 -34 -45 -39 -1 -4 -2 -14 -3 -20 -2 -15 28 -44 67 -64 56 -29 -5 -46
-86 -23 -61 17 -142 15 -161 -4 -16 -16 -22 -58 -9 -71 4 -4 8 -17 10 -30 3
-18 -4 -27 -32 -40 -19 -9 -39 -24 -44 -34 -6 -9 -11 -13 -11 -7 0 5 -12 -5
-27 -23 l-28 -33 -60 10 c-76 12 -107 18 -175 37 -118 33 -138 29 -201 -36
-25 -26 -48 -39 -77 -43 -31 -5 -55 -21 -103 -67 -128 -121 -249 -183 -484
-250 -265 -74 -422 -135 -513 -198 -76 -52 -155 -88 -256 -114 -206 -53 -312
-120 -452 -283 -178 -207 -438 -704 -619 -1181 -85 -222 -246 -729 -270 -844
-2 -8 -20 -79 -40 -158 -20 -78 -38 -151 -40 -163 -2 -11 -7 -29 -10 -40 -6
-19 51 -19 3779 -19 l3786 0 1 33 c0 17 3 41 5 52 9 39 11 532 3 635 -10 117
-43 296 -70 380 -9 30 -22 73 -28 95 -9 38 -13 58 -27 170 -3 28 -15 79 -27
115 -11 36 -21 101 -23 145 -3 92 -13 185 -21 198 -3 4 -7 23 -10 40 -6 40
-69 247 -89 296 -8 20 -22 69 -29 109 -33 172 -140 289 -319 348 -86 29 -170
75 -250 136 -75 57 -295 161 -421 198 -60 18 -144 49 -185 70 -41 21 -115 55
-165 75 -153 64 -176 75 -182 93 -8 20 -61 100 -83 124 -34 37 -97 71 -135 74
-22 2 -41 8 -43 14 -9 26 -150 79 -167 62 -6 -6 -22 -10 -70 -17 -16 -2 -39
-6 -51 -9 -12 -2 -45 -7 -74 -11 -29 -4 -62 -10 -73 -14 -12 -5 -50 4 -107 25
-47 18 -109 35 -136 37 -43 4 -50 8 -59 33 -5 16 -14 35 -18 42 -6 8 -3 20 7
31 10 11 14 28 10 51 -5 29 0 42 24 73 17 21 34 51 37 67 4 17 12 33 19 37 27
16 28 50 1 81 -19 22 -25 40 -23 66 1 19 5 34 8 33 12 -4 70 61 70 78 0 24
-19 55 -34 55 -14 0 -56 112 -56 152 0 27 23 58 42 58 6 0 8 11 6 24 -5 27 5
35 57 42 17 2 46 6 65 10 19 3 45 7 58 7 12 1 22 3 22 7 0 3 18 6 39 7 54 2
109 30 133 68 l21 31 86 -16 c134 -26 221 -18 304 28 47 25 66 51 73 97 5 37
4 270 -1 298 -4 20 2 43 19 73 13 24 30 60 36 81 7 21 17 43 22 50 14 17 13
70 -2 88 -7 8 -11 15 -9 16 2 0 15 2 28 5 13 2 36 18 52 35 34 37 36 67 13
170 -9 38 -13 77 -10 85 3 8 -10 46 -29 84 -19 38 -35 75 -35 82 0 20 58 80
145 149 90 71 110 89 98 89 -4 0 2 7 13 15 12 8 34 40 50 72 25 51 29 68 28
143 0 47 -4 99 -8 115 -12 49 -23 154 -16 157 7 3 55 185 80 303 13 60 4 172
-19 244 -14 43 -23 103 -27 190 -9 196 -17 263 -41 356 -8 33 -16 65 -18 70
-8 36 -19 71 -24 80 -3 6 -6 15 -7 21 -3 21 -76 180 -103 224 -15 25 -30 52
-33 61 -14 36 -161 219 -229 284 -114 109 -198 171 -314 234 -102 56 -266 120
-312 123 -5 0 -19 5 -33 10 -57 22 -355 49 -371 34z m-363 -3962 c21 -10 45
-24 54 -32 55 -49 160 -150 160 -155 0 -4 -10 -3 -22 2 -24 9 -32 11 -46 11
-5 0 -22 12 -40 28 -83 73 -98 80 -175 84 -36 1 -64 4 -62 7 2 2 0 12 -5 22
-8 14 -5 23 10 37 25 23 72 22 126 -4z m-43 -285 c12 -7 26 -18 30 -25 4 -8
12 -14 17 -14 5 0 26 -15 46 -34 21 -19 43 -32 48 -29 6 4 8 3 5 -1 -9 -9 66
-83 106 -104 19 -10 58 -16 108 -17 79 -2 127 -18 127 -42 0 -8 -3 -12 -8 -9
-4 2 -27 -10 -52 -27 -36 -25 -55 -31 -95 -30 -90 1 -106 11 -235 144 -85 87
-100 98 -140 104 -85 13 -98 34 -50 85 26 28 37 28 93 -1z m-5 -435 c13 -2 63
-34 110 -69 92 -68 118 -77 232 -81 97 -3 98 -3 76 -16 -30 -17 -108 -35 -146
-33 -76 4 -123 28 -207 106 -23 21 -47 39 -52 39 -6 0 -11 4 -11 9 0 12 -65
25 -113 23 -44 -1 -41 14 6 26 31 9 56 8 105 -4z m-56 -298 c21 -23 38 -44 38
-47 0 -15 90 -67 133 -78 43 -10 113 -8 160 5 9 3 17 1 17 -4 0 -16 -43 -32
-105 -39 -33 -3 -88 7 -160 31 -82 26 -142 88 -163 169 l-11 39 27 -18 c15
-10 44 -36 64 -58z m-175 -199 c7 0 10 -4 7 -9 -3 -4 -1 -8 3 -8 5 0 44 -34
87 -75 94 -90 92 -103 -8 -93 -8 1 -14 4 -13 7 1 3 -13 22 -31 41 -42 45 -78
99 -87 129 -6 21 -5 23 11 16 11 -4 24 -8 31 -8z"/>
</g>
</svg>
